<?xml version="1.0" encoding="utf-8" standalone="no"?>
<!DOCTYPE svg PUBLIC "-//W3C//DTD SVG 1.1//EN"
  "http://www.w3.org/Graphics/SVG/1.1/DTD/svg11.dtd">
<svg xmlns:xlink="http://www.w3.org/1999/xlink" width="691.2pt" height="374.4pt" viewBox="0 0 691.2 374.4" xmlns="http://www.w3.org/2000/svg" version="1.1">
 <metadata>
  <rdf:RDF xmlns:dc="http://purl.org/dc/elements/1.1/" xmlns:cc="http://creativecommons.org/ns#" xmlns:rdf="http://www.w3.org/1999/02/22-rdf-syntax-ns#">
   <cc:Work>
    <dc:type rdf:resource="http://purl.org/dc/dcmitype/StillImage"/>
    <dc:format>image/svg+xml</dc:format>
    <dc:creator>
     <cc:Agent>
      <dc:title>Matplotlib v3.11.1, https://matplotlib.org/</dc:title>
     </cc:Agent>
    </dc:creator>
   </cc:Work>
  </rdf:RDF>
 </metadata>
 <defs>
  <style type="text/css">*{stroke-linejoin: round; stroke-linecap: butt}</style>
 </defs>
 <g id="figure_1">
  <g id="patch_1">
   <path d="M 0 374.4 
L 691.2 374.4 
L 691.2 0 
L 0 0 
z
" style="fill: #1a1a19"/>
  </g>
  <g id="axes_1">
   <g id="patch_2">
    <path d="M 62.208 273.312 
L 525.312 273.312 
L 525.312 37.44 
L 62.208 37.44 
z
" style="fill: #1a1a19"/>
   </g>
   <g id="matplotlib.axis_1">
    <g id="xtick_1">
     <g id="line2d_1">
      <path d="M 171.588204 273.312 
L 171.588204 37.44 
" clip-path="url(#p7c9ccb0020)" style="fill: none; stroke: #33332f; stroke-width: 0.8; stroke-linecap: square"/>
     </g>
     <g id="line2d_2">
      <defs>
       <path id="m5ec1d65c88" d="M 0 0 
L 0 3.5 
" style="stroke: #c3c2b7; stroke-width: 0.8"/>
      </defs>
      <g>
       <use xlink:href="#m5ec1d65c88" x="171.588204" y="273.312" style="fill: #c3c2b7; stroke: #c3c2b7; stroke-width: 0.8"/>
      </g>
     </g>
     <g id="text_1">
      <text style="font-size: 10px; font-family: 'DejaVu Sans', 'Bitstream Vera Sans', 'Computer Modern Sans Serif', 'Lucida Grande', 'Verdana', 'Geneva', 'Lucid', 'Arial', 'Helvetica', 'Avant Garde', sans-serif; text-anchor: middle; fill: #c3c2b7" x="171.588204" y="287.909656" transform="rotate(-0 171.588204 287.909656)">10</text>
     </g>
    </g>
    <g id="xtick_2">
     <g id="line2d_3">
      <path d="M 296.879119 273.312 
L 296.879119 37.44 
" clip-path="url(#p7c9ccb0020)" style="fill: none; stroke: #33332f; stroke-width: 0.8; stroke-linecap: square"/>
     </g>
     <g id="line2d_4">
      <g>
       <use xlink:href="#m5ec1d65c88" x="296.879119" y="273.312" style="fill: #c3c2b7; stroke: #c3c2b7; stroke-width: 0.8"/>
      </g>
     </g>
     <g id="text_2">
      <text style="font-size: 10px; font-family: 'DejaVu Sans', 'Bitstream Vera Sans', 'Computer Modern Sans Serif', 'Lucida Grande', 'Verdana', 'Geneva', 'Lucid', 'Arial', 'Helvetica', 'Avant Garde', sans-serif; text-anchor: middle; fill: #c3c2b7" x="296.879119" y="287.909656" transform="rotate(-0 296.879119 287.909656)">100</text>
     </g>
    </g>
    <g id="xtick_3">
     <g id="line2d_5">
      <path d="M 422.170034 273.312 
L 422.170034 37.44 
" clip-path="url(#p7c9ccb0020)" style="fill: none; stroke: #33332f; stroke-width: 0.8; stroke-linecap: square"/>
     </g>
     <g id="line2d_6">
      <g>
       <use xlink:href="#m5ec1d65c88" x="422.170034" y="273.312" style="fill: #c3c2b7; stroke: #c3c2b7; stroke-width: 0.8"/>
      </g>
     </g>
     <g id="text_3">
      <text style="font-size: 10px; font-family: 'DejaVu Sans', 'Bitstream Vera Sans', 'Computer Modern Sans Serif', 'Lucida Grande', 'Verdana', 'Geneva', 'Lucid', 'Arial', 'Helvetica', 'Avant Garde', sans-serif; text-anchor: middle; fill: #c3c2b7" x="422.170034" y="287.909656" transform="rotate(-0 422.170034 287.909656)">1,000</text>
     </g>
    </g>
    <g id="xtick_4">
     <g id="line2d_7">
      <defs>
       <path id="m5e015acaa7" d="M 0 0 
L 0 2 
" style="stroke: #c3c2b7; stroke-width: 0.6"/>
      </defs>
      <g>
       <use xlink:href="#m5e015acaa7" x="84.013613" y="273.312" style="fill: #c3c2b7; stroke: #c3c2b7; stroke-width: 0.6"/>
      </g>
     </g>
    </g>
    <g id="xtick_5">
     <g id="line2d_8">
      <g>
       <use xlink:href="#m5e015acaa7" x="106.076248" y="273.312" style="fill: #c3c2b7; stroke: #c3c2b7; stroke-width: 0.6"/>
      </g>
     </g>
    </g>
    <g id="xtick_6">
     <g id="line2d_9">
      <g>
       <use xlink:href="#m5e015acaa7" x="121.729936" y="273.312" style="fill: #c3c2b7; stroke: #c3c2b7; stroke-width: 0.6"/>
      </g>
     </g>
    </g>
    <g id="xtick_7">
     <g id="line2d_10">
      <g>
       <use xlink:href="#m5e015acaa7" x="133.871881" y="273.312" style="fill: #c3c2b7; stroke: #c3c2b7; stroke-width: 0.6"/>
      </g>
     </g>
    </g>
    <g id="xtick_8">
     <g id="line2d_11">
      <g>
       <use xlink:href="#m5e015acaa7" x="143.792571" y="273.312" style="fill: #c3c2b7; stroke: #c3c2b7; stroke-width: 0.6"/>
      </g>
     </g>
    </g>
    <g id="xtick_9">
     <g id="line2d_12">
      <g>
       <use xlink:href="#m5e015acaa7" x="152.180396" y="273.312" style="fill: #c3c2b7; stroke: #c3c2b7; stroke-width: 0.6"/>
      </g>
     </g>
    </g>
    <g id="xtick_10">
     <g id="line2d_13">
      <g>
       <use xlink:href="#m5e015acaa7" x="159.44626" y="273.312" style="fill: #c3c2b7; stroke: #c3c2b7; stroke-width: 0.6"/>
      </g>
     </g>
    </g>
    <g id="xtick_11">
     <g id="line2d_14">
      <g>
       <use xlink:href="#m5e015acaa7" x="165.855206" y="273.312" style="fill: #c3c2b7; stroke: #c3c2b7; stroke-width: 0.6"/>
      </g>
     </g>
    </g>
    <g id="xtick_12">
     <g id="line2d_15">
      <g>
       <use xlink:href="#m5e015acaa7" x="209.304528" y="273.312" style="fill: #c3c2b7; stroke: #c3c2b7; stroke-width: 0.6"/>
      </g>
     </g>
    </g>
    <g id="xtick_13">
     <g id="line2d_16">
      <g>
       <use xlink:href="#m5e015acaa7" x="231.367163" y="273.312" style="fill: #c3c2b7; stroke: #c3c2b7; stroke-width: 0.6"/>
      </g>
     </g>
    </g>
    <g id="xtick_14">
     <g id="line2d_17">
      <g>
       <use xlink:href="#m5e015acaa7" x="247.020851" y="273.312" style="fill: #c3c2b7; stroke: #c3c2b7; stroke-width: 0.6"/>
      </g>
     </g>
    </g>
    <g id="xtick_15">
     <g id="line2d_18">
      <g>
       <use xlink:href="#m5e015acaa7" x="259.162795" y="273.312" style="fill: #c3c2b7; stroke: #c3c2b7; stroke-width: 0.6"/>
      </g>
     </g>
    </g>
    <g id="xtick_16">
     <g id="line2d_19">
      <g>
       <use xlink:href="#m5e015acaa7" x="269.083486" y="273.312" style="fill: #c3c2b7; stroke: #c3c2b7; stroke-width: 0.6"/>
      </g>
     </g>
    </g>
    <g id="xtick_17">
     <g id="line2d_20">
      <g>
       <use xlink:href="#m5e015acaa7" x="277.471311" y="273.312" style="fill: #c3c2b7; stroke: #c3c2b7; stroke-width: 0.6"/>
      </g>
     </g>
    </g>
    <g id="xtick_18">
     <g id="line2d_21">
      <g>
       <use xlink:href="#m5e015acaa7" x="284.737175" y="273.312" style="fill: #c3c2b7; stroke: #c3c2b7; stroke-width: 0.6"/>
      </g>
     </g>
    </g>
    <g id="xtick_19">
     <g id="line2d_22">
      <g>
       <use xlink:href="#m5e015acaa7" x="291.146121" y="273.312" style="fill: #c3c2b7; stroke: #c3c2b7; stroke-width: 0.6"/>
      </g>
     </g>
    </g>
    <g id="xtick_20">
     <g id="line2d_23">
      <g>
       <use xlink:href="#m5e015acaa7" x="334.595442" y="273.312" style="fill: #c3c2b7; stroke: #c3c2b7; stroke-width: 0.6"/>
      </g>
     </g>
    </g>
    <g id="xtick_21">
     <g id="line2d_24">
      <g>
       <use xlink:href="#m5e015acaa7" x="356.658077" y="273.312" style="fill: #c3c2b7; stroke: #c3c2b7; stroke-width: 0.6"/>
      </g>
     </g>
    </g>
    <g id="xtick_22">
     <g id="line2d_25">
      <g>
       <use xlink:href="#m5e015acaa7" x="372.311766" y="273.312" style="fill: #c3c2b7; stroke: #c3c2b7; stroke-width: 0.6"/>
      </g>
     </g>
    </g>
    <g id="xtick_23">
     <g id="line2d_26">
      <g>
       <use xlink:href="#m5e015acaa7" x="384.45371" y="273.312" style="fill: #c3c2b7; stroke: #c3c2b7; stroke-width: 0.6"/>
      </g>
     </g>
    </g>
    <g id="xtick_24">
     <g id="line2d_27">
      <g>
       <use xlink:href="#m5e015acaa7" x="394.374401" y="273.312" style="fill: #c3c2b7; stroke: #c3c2b7; stroke-width: 0.6"/>
      </g>
     </g>
    </g>
    <g id="xtick_25">
     <g id="line2d_28">
      <g>
       <use xlink:href="#m5e015acaa7" x="402.762225" y="273.312" style="fill: #c3c2b7; stroke: #c3c2b7; stroke-width: 0.6"/>
      </g>
     </g>
    </g>
    <g id="xtick_26">
     <g id="line2d_29">
      <g>
       <use xlink:href="#m5e015acaa7" x="410.028089" y="273.312" style="fill: #c3c2b7; stroke: #c3c2b7; stroke-width: 0.6"/>
      </g>
     </g>
    </g>
    <g id="xtick_27">
     <g id="line2d_30">
      <g>
       <use xlink:href="#m5e015acaa7" x="416.437036" y="273.312" style="fill: #c3c2b7; stroke: #c3c2b7; stroke-width: 0.6"/>
      </g>
     </g>
    </g>
    <g id="xtick_28">
     <g id="line2d_31">
      <g>
       <use xlink:href="#m5e015acaa7" x="459.886357" y="273.312" style="fill: #c3c2b7; stroke: #c3c2b7; stroke-width: 0.6"/>
      </g>
     </g>
    </g>
    <g id="xtick_29">
     <g id="line2d_32">
      <g>
       <use xlink:href="#m5e015acaa7" x="481.948992" y="273.312" style="fill: #c3c2b7; stroke: #c3c2b7; stroke-width: 0.6"/>
      </g>
     </g>
    </g>
    <g id="xtick_30">
     <g id="line2d_33">
      <g>
       <use xlink:href="#m5e015acaa7" x="497.602681" y="273.312" style="fill: #c3c2b7; stroke: #c3c2b7; stroke-width: 0.6"/>
      </g>
     </g>
    </g>
    <g id="xtick_31">
     <g id="line2d_34">
      <g>
       <use xlink:href="#m5e015acaa7" x="509.744625" y="273.312" style="fill: #c3c2b7; stroke: #c3c2b7; stroke-width: 0.6"/>
      </g>
     </g>
    </g>
    <g id="xtick_32">
     <g id="line2d_35">
      <g>
       <use xlink:href="#m5e015acaa7" x="519.665315" y="273.312" style="fill: #c3c2b7; stroke: #c3c2b7; stroke-width: 0.6"/>
      </g>
     </g>
    </g>
    <g id="text_4">
     <text style="font-size: 10px; font-family: 'DejaVu Sans', 'Bitstream Vera Sans', 'Computer Modern Sans Serif', 'Lucida Grande', 'Verdana', 'Geneva', 'Lucid', 'Arial', 'Helvetica', 'Avant Garde', sans-serif; text-anchor: middle; fill: #c3c2b7" x="293.76" y="301.910438" transform="rotate(-0 293.76 301.910438)">published nodes</text>
    </g>
   </g>
   <g id="matplotlib.axis_2">
    <g id="ytick_1">
     <g id="line2d_36">
      <path d="M 62.208 244.882383 
L 525.312 244.882383 
" clip-path="url(#p7c9ccb0020)" style="fill: none; stroke: #33332f; stroke-width: 0.8; stroke-linecap: square"/>
     </g>
     <g id="line2d_37">
      <defs>
       <path id="mb448b4ee46" d="M 0 0 
L -3.5 0 
" style="stroke: #c3c2b7; stroke-width: 0.8"/>
      </defs>
      <g>
       <use xlink:href="#mb448b4ee46" x="62.208" y="244.882383" style="fill: #c3c2b7; stroke: #c3c2b7; stroke-width: 0.8"/>
      </g>
     </g>
     <g id="text_5">
      <text style="font-size: 10px; font-family: 'DejaVu Sans', 'Bitstream Vera Sans', 'Computer Modern Sans Serif', 'Lucida Grande', 'Verdana', 'Geneva', 'Lucid', 'Arial', 'Helvetica', 'Avant Garde', sans-serif; text-anchor: end; fill: #c3c2b7" x="55.208" y="248.681211" transform="rotate(-0 55.208 248.681211)">10</text>
     </g>
    </g>
    <g id="ytick_2">
     <g id="line2d_38">
      <path d="M 62.208 156.845329 
L 525.312 156.845329 
" clip-path="url(#p7c9ccb0020)" style="fill: none; stroke: #33332f; stroke-width: 0.8; stroke-linecap: square"/>
     </g>
     <g id="line2d_39">
      <g>
       <use xlink:href="#mb448b4ee46" x="62.208" y="156.845329" style="fill: #c3c2b7; stroke: #c3c2b7; stroke-width: 0.8"/>
      </g>
     </g>
     <g id="text_6">
      <text style="font-size: 10px; font-family: 'DejaVu Sans', 'Bitstream Vera Sans', 'Computer Modern Sans Serif', 'Lucida Grande', 'Verdana', 'Geneva', 'Lucid', 'Arial', 'Helvetica', 'Avant Garde', sans-serif; text-anchor: end; fill: #c3c2b7" x="55.208" y="160.644157" transform="rotate(-0 55.208 160.644157)">100</text>
     </g>
    </g>
    <g id="ytick_3">
     <g id="line2d_40">
      <path d="M 62.208 68.808275 
L 525.312 68.808275 
" clip-path="url(#p7c9ccb0020)" style="fill: none; stroke: #33332f; stroke-width: 0.8; stroke-linecap: square"/>
     </g>
     <g id="line2d_41">
      <g>
       <use xlink:href="#mb448b4ee46" x="62.208" y="68.808275" style="fill: #c3c2b7; stroke: #c3c2b7; stroke-width: 0.8"/>
      </g>
     </g>
     <g id="text_7">
      <text style="font-size: 10px; font-family: 'DejaVu Sans', 'Bitstream Vera Sans', 'Computer Modern Sans Serif', 'Lucida Grande', 'Verdana', 'Geneva', 'Lucid', 'Arial', 'Helvetica', 'Avant Garde', sans-serif; text-anchor: end; fill: #c3c2b7" x="55.208" y="72.607103" transform="rotate(-0 55.208 72.607103)">1,000</text>
     </g>
    </g>
    <g id="ytick_4">
     <g id="line2d_42">
      <defs>
       <path id="m039c7db84e" d="M 0 0 
L -2 0 
" style="stroke: #c3c2b7; stroke-width: 0.6"/>
      </defs>
      <g>
       <use xlink:href="#m039c7db84e" x="62.208" y="271.384177" style="fill: #c3c2b7; stroke: #c3c2b7; stroke-width: 0.6"/>
      </g>
     </g>
    </g>
    <g id="ytick_5">
     <g id="line2d_43">
      <g>
       <use xlink:href="#m039c7db84e" x="62.208" y="264.413293" style="fill: #c3c2b7; stroke: #c3c2b7; stroke-width: 0.6"/>
      </g>
     </g>
    </g>
    <g id="ytick_6">
     <g id="line2d_44">
      <g>
       <use xlink:href="#m039c7db84e" x="62.208" y="258.519495" style="fill: #c3c2b7; stroke: #c3c2b7; stroke-width: 0.6"/>
      </g>
     </g>
    </g>
    <g id="ytick_7">
     <g id="line2d_45">
      <g>
       <use xlink:href="#m039c7db84e" x="62.208" y="253.414055" style="fill: #c3c2b7; stroke: #c3c2b7; stroke-width: 0.6"/>
      </g>
     </g>
    </g>
    <g id="ytick_8">
     <g id="line2d_46">
      <g>
       <use xlink:href="#m039c7db84e" x="62.208" y="248.910738" style="fill: #c3c2b7; stroke: #c3c2b7; stroke-width: 0.6"/>
      </g>
     </g>
    </g>
    <g id="ytick_9">
     <g id="line2d_47">
      <g>
       <use xlink:href="#m039c7db84e" x="62.208" y="218.380589" style="fill: #c3c2b7; stroke: #c3c2b7; stroke-width: 0.6"/>
      </g>
     </g>
    </g>
    <g id="ytick_10">
     <g id="line2d_48">
      <g>
       <use xlink:href="#m039c7db84e" x="62.208" y="202.878033" style="fill: #c3c2b7; stroke: #c3c2b7; stroke-width: 0.6"/>
      </g>
     </g>
    </g>
    <g id="ytick_11">
     <g id="line2d_49">
      <g>
       <use xlink:href="#m039c7db84e" x="62.208" y="191.878795" style="fill: #c3c2b7; stroke: #c3c2b7; stroke-width: 0.6"/>
      </g>
     </g>
    </g>
    <g id="ytick_12">
     <g id="line2d_50">
      <g>
       <use xlink:href="#m039c7db84e" x="62.208" y="183.347123" style="fill: #c3c2b7; stroke: #c3c2b7; stroke-width: 0.6"/>
      </g>
     </g>
    </g>
    <g id="ytick_13">
     <g id="line2d_51">
      <g>
       <use xlink:href="#m039c7db84e" x="62.208" y="176.376239" style="fill: #c3c2b7; stroke: #c3c2b7; stroke-width: 0.6"/>
      </g>
     </g>
    </g>
    <g id="ytick_14">
     <g id="line2d_52">
      <g>
       <use xlink:href="#m039c7db84e" x="62.208" y="170.482441" style="fill: #c3c2b7; stroke: #c3c2b7; stroke-width: 0.6"/>
      </g>
     </g>
    </g>
    <g id="ytick_15">
     <g id="line2d_53">
      <g>
       <use xlink:href="#m039c7db84e" x="62.208" y="165.377001" style="fill: #c3c2b7; stroke: #c3c2b7; stroke-width: 0.6"/>
      </g>
     </g>
    </g>
    <g id="ytick_16">
     <g id="line2d_54">
      <g>
       <use xlink:href="#m039c7db84e" x="62.208" y="160.873683" style="fill: #c3c2b7; stroke: #c3c2b7; stroke-width: 0.6"/>
      </g>
     </g>
    </g>
    <g id="ytick_17">
     <g id="line2d_55">
      <g>
       <use xlink:href="#m039c7db84e" x="62.208" y="130.343535" style="fill: #c3c2b7; stroke: #c3c2b7; stroke-width: 0.6"/>
      </g>
     </g>
    </g>
    <g id="ytick_18">
     <g id="line2d_56">
      <g>
       <use xlink:href="#m039c7db84e" x="62.208" y="114.840979" style="fill: #c3c2b7; stroke: #c3c2b7; stroke-width: 0.6"/>
      </g>
     </g>
    </g>
    <g id="ytick_19">
     <g id="line2d_57">
      <g>
       <use xlink:href="#m039c7db84e" x="62.208" y="103.841741" style="fill: #c3c2b7; stroke: #c3c2b7; stroke-width: 0.6"/>
      </g>
     </g>
    </g>
    <g id="ytick_20">
     <g id="line2d_58">
      <g>
       <use xlink:href="#m039c7db84e" x="62.208" y="95.310069" style="fill: #c3c2b7; stroke: #c3c2b7; stroke-width: 0.6"/>
      </g>
     </g>
    </g>
    <g id="ytick_21">
     <g id="line2d_59">
      <g>
       <use xlink:href="#m039c7db84e" x="62.208" y="88.339185" style="fill: #c3c2b7; stroke: #c3c2b7; stroke-width: 0.6"/>
      </g>
     </g>
    </g>
    <g id="ytick_22">
     <g id="line2d_60">
      <g>
       <use xlink:href="#m039c7db84e" x="62.208" y="82.445387" style="fill: #c3c2b7; stroke: #c3c2b7; stroke-width: 0.6"/>
      </g>
     </g>
    </g>
    <g id="ytick_23">
     <g id="line2d_61">
      <g>
       <use xlink:href="#m039c7db84e" x="62.208" y="77.339947" style="fill: #c3c2b7; stroke: #c3c2b7; stroke-width: 0.6"/>
      </g>
     </g>
    </g>
    <g id="ytick_24">
     <g id="line2d_62">
      <g>
       <use xlink:href="#m039c7db84e" x="62.208" y="72.836629" style="fill: #c3c2b7; stroke: #c3c2b7; stroke-width: 0.6"/>
      </g>
     </g>
    </g>
    <g id="ytick_25">
     <g id="line2d_63">
      <g>
       <use xlink:href="#m039c7db84e" x="62.208" y="42.306481" style="fill: #c3c2b7; stroke: #c3c2b7; stroke-width: 0.6"/>
      </g>
     </g>
    </g>
    <g id="text_8">
     <text style="font-size: 10px; font-family: 'DejaVu Sans', 'Bitstream Vera Sans', 'Computer Modern Sans Serif', 'Lucida Grande', 'Verdana', 'Geneva', 'Lucid', 'Arial', 'Helvetica', 'Avant Garde', sans-serif; text-anchor: middle; fill: #c3c2b7" x="20.177531" y="155.376" transform="rotate(-90 20.177531 155.376)">MB added over the import baseline</text>
    </g>
   </g>
   <g id="line2d_64">
    <path d="M 84.013613 169.730328 
L 301.066812 168.824825 
L 309.884782 168.126384 
L 520.125873 93.985242 
" clip-path="url(#p7c9ccb0020)" style="fill: none; stroke: #3987e5; stroke-width: 2; stroke-linecap: round"/>
   </g>
   <g id="line2d_65">
    <path d="M 84.013613 169.728236 
L 301.066812 136.59596 
L 309.884782 136.409099 
L 520.125873 62.722636 
" clip-path="url(#p7c9ccb0020)" style="fill: none; stroke: #d55181; stroke-width: 2; stroke-linecap: round"/>
   </g>
   <g id="line2d_66">
    <path d="M 84.013613 194.235007 
L 301.066812 160.101585 
L 309.884782 161.822967 
L 520.125873 87.323757 
" clip-path="url(#p7c9ccb0020)" style="fill: none; stroke: #008300; stroke-width: 2; stroke-linecap: round"/>
   </g>
   <g id="line2d_67">
    <path d="M 84.013613 262.590545 
L 301.066812 150.568977 
L 309.884782 150.772303 
" clip-path="url(#p7c9ccb0020)" style="fill: none; stroke: #9085e9; stroke-width: 2; stroke-linecap: round"/>
   </g>
   <g id="line2d_68">
    <path d="M 84.013613 200.122188 
L 301.066812 144.065017 
L 309.884782 145.404331 
L 520.125873 48.161455 
" clip-path="url(#p7c9ccb0020)" style="fill: none; stroke: #1b9cb6; stroke-width: 2; stroke-linecap: round"/>
   </g>
   <g id="patch_3">
    <path d="M 62.208 273.312 
L 62.208 37.44 
" style="fill: none; stroke: #6f6e69; stroke-width: 0.8; stroke-linejoin: miter; stroke-linecap: square"/>
   </g>
   <g id="patch_4">
    <path d="M 62.208 273.312 
L 525.312 273.312 
" style="fill: none; stroke: #6f6e69; stroke-width: 0.8; stroke-linejoin: miter; stroke-linecap: square"/>
   </g>
   <g id="line2d_69">
    <defs>
     <path id="m8c884c521c" d="M 0 3.5 
C 0.928211 3.5 1.81853 3.131218 2.474874 2.474874 
C 3.131218 1.81853 3.5 0.928211 3.5 0 
C 3.5 -0.928211 3.131218 -1.81853 2.474874 -2.474874 
C 1.81853 -3.131218 0.928211 -3.5 0 -3.5 
C -0.928211 -3.5 -1.81853 -3.131218 -2.474874 -2.474874 
C -3.131218 -1.81853 -3.5 -0.928211 -3.5 0 
C -3.5 0.928211 -3.131218 1.81853 -2.474874 2.474874 
C -1.81853 3.131218 -0.928211 3.5 0 3.5 
z
" style="stroke: #3987e5; stroke-width: 2"/>
    </defs>
    <g clip-path="url(#p7c9ccb0020)">
     <use xlink:href="#m8c884c521c" x="84.013613" y="169.730328" style="fill: #3987e5; stroke: #3987e5; stroke-width: 2"/>
    </g>
   </g>
   <g id="line2d_70">
    <g clip-path="url(#p7c9ccb0020)">
     <use xlink:href="#m8c884c521c" x="301.066812" y="168.824825" style="fill: #3987e5; stroke: #3987e5; stroke-width: 2"/>
    </g>
   </g>
   <g id="line2d_71">
    <g clip-path="url(#p7c9ccb0020)">
     <use xlink:href="#m8c884c521c" x="309.884782" y="168.126384" style="fill: #3987e5; stroke: #3987e5; stroke-width: 2"/>
    </g>
   </g>
   <g id="line2d_72">
    <defs>
     <path id="m347ae37352" d="M 0 3.5 
C 0.928211 3.5 1.81853 3.131218 2.474874 2.474874 
C 3.131218 1.81853 3.5 0.928211 3.5 0 
C 3.5 -0.928211 3.131218 -1.81853 2.474874 -2.474874 
C 1.81853 -3.131218 0.928211 -3.5 0 -3.5 
C -0.928211 -3.5 -1.81853 -3.131218 -2.474874 -2.474874 
C -3.131218 -1.81853 -3.5 -0.928211 -3.5 0 
C -3.5 0.928211 -3.131218 1.81853 -2.474874 2.474874 
C -1.81853 3.131218 -0.928211 3.5 0 3.5 
z
" style="stroke: #3987e5; stroke-width: 2"/>
    </defs>
    <g clip-path="url(#p7c9ccb0020)">
     <use xlink:href="#m347ae37352" x="520.125873" y="93.985242" style="fill: #1a1a19; stroke: #3987e5; stroke-width: 2"/>
    </g>
   </g>
   <g id="line2d_73">
    <defs>
     <path id="mc2f7c8847a" d="M 0 3.5 
C 0.928211 3.5 1.81853 3.131218 2.474874 2.474874 
C 3.131218 1.81853 3.5 0.928211 3.5 0 
C 3.5 -0.928211 3.131218 -1.81853 2.474874 -2.474874 
C 1.81853 -3.131218 0.928211 -3.5 0 -3.5 
C -0.928211 -3.5 -1.81853 -3.131218 -2.474874 -2.474874 
C -3.131218 -1.81853 -3.5 -0.928211 -3.5 0 
C -3.5 0.928211 -3.131218 1.81853 -2.474874 2.474874 
C -1.81853 3.131218 -0.928211 3.5 0 3.5 
z
" style="stroke: #d55181; stroke-width: 2"/>
    </defs>
    <g clip-path="url(#p7c9ccb0020)">
     <use xlink:href="#mc2f7c8847a" x="84.013613" y="169.728236" style="fill: #d55181; stroke: #d55181; stroke-width: 2"/>
    </g>
   </g>
   <g id="line2d_74">
    <g clip-path="url(#p7c9ccb0020)">
     <use xlink:href="#mc2f7c8847a" x="301.066812" y="136.59596" style="fill: #d55181; stroke: #d55181; stroke-width: 2"/>
    </g>
   </g>
   <g id="line2d_75">
    <g clip-path="url(#p7c9ccb0020)">
     <use xlink:href="#mc2f7c8847a" x="309.884782" y="136.409099" style="fill: #d55181; stroke: #d55181; stroke-width: 2"/>
    </g>
   </g>
   <g id="line2d_76">
    <g clip-path="url(#p7c9ccb0020)">
     <use xlink:href="#mc2f7c8847a" x="520.125873" y="62.722636" style="fill: #d55181; stroke: #d55181; stroke-width: 2"/>
    </g>
   </g>
   <g id="line2d_77">
    <defs>
     <path id="m8a57e56164" d="M 0 3.5 
C 0.928211 3.5 1.81853 3.131218 2.474874 2.474874 
C 3.131218 1.81853 3.5 0.928211 3.5 0 
C 3.5 -0.928211 3.131218 -1.81853 2.474874 -2.474874 
C 1.81853 -3.131218 0.928211 -3.5 0 -3.5 
C -0.928211 -3.5 -1.81853 -3.131218 -2.474874 -2.474874 
C -3.131218 -1.81853 -3.5 -0.928211 -3.5 0 
C -3.5 0.928211 -3.131218 1.81853 -2.474874 2.474874 
C -1.81853 3.131218 -0.928211 3.5 0 3.5 
z
" style="stroke: #008300; stroke-width: 2"/>
    </defs>
    <g clip-path="url(#p7c9ccb0020)">
     <use xlink:href="#m8a57e56164" x="84.013613" y="194.235007" style="fill: #008300; stroke: #008300; stroke-width: 2"/>
    </g>
   </g>
   <g id="line2d_78">
    <g clip-path="url(#p7c9ccb0020)">
     <use xlink:href="#m8a57e56164" x="301.066812" y="160.101585" style="fill: #008300; stroke: #008300; stroke-width: 2"/>
    </g>
   </g>
   <g id="line2d_79">
    <g clip-path="url(#p7c9ccb0020)">
     <use xlink:href="#m8a57e56164" x="309.884782" y="161.822967" style="fill: #008300; stroke: #008300; stroke-width: 2"/>
    </g>
   </g>
   <g id="line2d_80">
    <defs>
     <path id="mf915a3e855" d="M 0 3.5 
C 0.928211 3.5 1.81853 3.131218 2.474874 2.474874 
C 3.131218 1.81853 3.5 0.928211 3.5 0 
C 3.5 -0.928211 3.131218 -1.81853 2.474874 -2.474874 
C 1.81853 -3.131218 0.928211 -3.5 0 -3.5 
C -0.928211 -3.5 -1.81853 -3.131218 -2.474874 -2.474874 
C -3.131218 -1.81853 -3.5 -0.928211 -3.5 0 
C -3.5 0.928211 -3.131218 1.81853 -2.474874 2.474874 
C -1.81853 3.131218 -0.928211 3.5 0 3.5 
z
" style="stroke: #008300; stroke-width: 2"/>
    </defs>
    <g clip-path="url(#p7c9ccb0020)">
     <use xlink:href="#mf915a3e855" x="520.125873" y="87.323757" style="fill: #1a1a19; stroke: #008300; stroke-width: 2"/>
    </g>
   </g>
   <g id="line2d_81">
    <defs>
     <path id="mc57f219ca8" d="M 0 3.5 
C 0.928211 3.5 1.81853 3.131218 2.474874 2.474874 
C 3.131218 1.81853 3.5 0.928211 3.5 0 
C 3.5 -0.928211 3.131218 -1.81853 2.474874 -2.474874 
C 1.81853 -3.131218 0.928211 -3.5 0 -3.5 
C -0.928211 -3.5 -1.81853 -3.131218 -2.474874 -2.474874 
C -3.131218 -1.81853 -3.5 -0.928211 -3.5 0 
C -3.5 0.928211 -3.131218 1.81853 -2.474874 2.474874 
C -1.81853 3.131218 -0.928211 3.5 0 3.5 
z
" style="stroke: #9085e9; stroke-width: 2"/>
    </defs>
    <g clip-path="url(#p7c9ccb0020)">
     <use xlink:href="#mc57f219ca8" x="84.013613" y="262.590545" style="fill: #9085e9; stroke: #9085e9; stroke-width: 2"/>
    </g>
   </g>
   <g id="line2d_82">
    <g clip-path="url(#p7c9ccb0020)">
     <use xlink:href="#mc57f219ca8" x="301.066812" y="150.568977" style="fill: #9085e9; stroke: #9085e9; stroke-width: 2"/>
    </g>
   </g>
   <g id="line2d_83">
    <defs>
     <path id="m82c6525af8" d="M 0 3.5 
C 0.928211 3.5 1.81853 3.131218 2.474874 2.474874 
C 3.131218 1.81853 3.5 0.928211 3.5 0 
C 3.5 -0.928211 3.131218 -1.81853 2.474874 -2.474874 
C 1.81853 -3.131218 0.928211 -3.5 0 -3.5 
C -0.928211 -3.5 -1.81853 -3.131218 -2.474874 -2.474874 
C -3.131218 -1.81853 -3.5 -0.928211 -3.5 0 
C -3.5 0.928211 -3.131218 1.81853 -2.474874 2.474874 
C -1.81853 3.131218 -0.928211 3.5 0 3.5 
z
" style="stroke: #9085e9; stroke-width: 2"/>
    </defs>
    <g clip-path="url(#p7c9ccb0020)">
     <use xlink:href="#m82c6525af8" x="309.884782" y="150.772303" style="fill: #1a1a19; stroke: #9085e9; stroke-width: 2"/>
    </g>
   </g>
   <g id="line2d_84">
    <defs>
     <path id="mf96da0c915" d="M 0 3.5 
C 0.928211 3.5 1.81853 3.131218 2.474874 2.474874 
C 3.131218 1.81853 3.5 0.928211 3.5 0 
C 3.5 -0.928211 3.131218 -1.81853 2.474874 -2.474874 
C 1.81853 -3.131218 0.928211 -3.5 0 -3.5 
C -0.928211 -3.5 -1.81853 -3.131218 -2.474874 -2.474874 
C -3.131218 -1.81853 -3.5 -0.928211 -3.5 0 
C -3.5 0.928211 -3.131218 1.81853 -2.474874 2.474874 
C -1.81853 3.131218 -0.928211 3.5 0 3.5 
z
" style="stroke: #1b9cb6; stroke-width: 2"/>
    </defs>
    <g clip-path="url(#p7c9ccb0020)">
     <use xlink:href="#mf96da0c915" x="84.013613" y="200.122188" style="fill: #1b9cb6; stroke: #1b9cb6; stroke-width: 2"/>
    </g>
   </g>
   <g id="line2d_85">
    <g clip-path="url(#p7c9ccb0020)">
     <use xlink:href="#mf96da0c915" x="301.066812" y="144.065017" style="fill: #1b9cb6; stroke: #1b9cb6; stroke-width: 2"/>
    </g>
   </g>
   <g id="line2d_86">
    <g clip-path="url(#p7c9ccb0020)">
     <use xlink:href="#mf96da0c915" x="309.884782" y="145.404331" style="fill: #1b9cb6; stroke: #1b9cb6; stroke-width: 2"/>
    </g>
   </g>
   <g id="line2d_87">
    <defs>
     <path id="m744dffc2b9" d="M 0 3.5 
C 0.928211 3.5 1.81853 3.131218 2.474874 2.474874 
C 3.131218 1.81853 3.5 0.928211 3.5 0 
C 3.5 -0.928211 3.131218 -1.81853 2.474874 -2.474874 
C 1.81853 -3.131218 0.928211 -3.5 0 -3.5 
C -0.928211 -3.5 -1.81853 -3.131218 -2.474874 -2.474874 
C -3.131218 -1.81853 -3.5 -0.928211 -3.5 0 
C -3.5 0.928211 -3.131218 1.81853 -2.474874 2.474874 
C -1.81853 3.131218 -0.928211 3.5 0 3.5 
z
" style="stroke: #1b9cb6; stroke-width: 2"/>
    </defs>
    <g clip-path="url(#p7c9ccb0020)">
     <use xlink:href="#m744dffc2b9" x="520.125873" y="48.161455" style="fill: #1a1a19; stroke: #1b9cb6; stroke-width: 2"/>
    </g>
   </g>
   <g id="text_9">
    <text style="font-size: 9px; font-family: 'DejaVu Sans', 'Bitstream Vera Sans', 'Computer Modern Sans Serif', 'Lucida Grande', 'Verdana', 'Geneva', 'Lucid', 'Arial', 'Helvetica', 'Avant Garde', sans-serif; text-anchor: start; fill: #ffffff" x="527.730761" y="96.323484" transform="rotate(-0 527.730761 96.323484)">pandapower</text>
   </g>
   <g id="text_10">
    <text style="font-size: 9px; font-family: 'DejaVu Sans', 'Bitstream Vera Sans', 'Computer Modern Sans Serif', 'Lucida Grande', 'Verdana', 'Geneva', 'Lucid', 'Arial', 'Helvetica', 'Avant Garde', sans-serif; text-anchor: start; fill: #ffffff" x="527.730761" y="65.060879" transform="rotate(-0 527.730761 65.060879)">pypowsybl (OpenLoadFlow)</text>
   </g>
   <g id="text_11">
    <text style="font-size: 9px; font-family: 'DejaVu Sans', 'Bitstream Vera Sans', 'Computer Modern Sans Serif', 'Lucida Grande', 'Verdana', 'Geneva', 'Lucid', 'Arial', 'Helvetica', 'Avant Garde', sans-serif; text-anchor: start; fill: #ffffff" x="527.730761" y="83.350524" transform="rotate(-0 527.730761 83.350524)">VeraGrid</text>
   </g>
   <g id="text_12">
    <text style="font-size: 9px; font-family: 'DejaVu Sans', 'Bitstream Vera Sans', 'Computer Modern Sans Serif', 'Lucida Grande', 'Verdana', 'Geneva', 'Lucid', 'Arial', 'Helvetica', 'Avant Garde', sans-serif; text-anchor: start; fill: #ffffff" x="527.730761" y="50.499697" transform="rotate(-0 527.730761 50.499697)">Sparlectra.jl</text>
   </g>
   <g id="text_13">
    <text style="font-size: 12px; font-family: 'DejaVu Sans', 'Bitstream Vera Sans', 'Computer Modern Sans Serif', 'Lucida Grande', 'Verdana', 'Geneva', 'Lucid', 'Arial', 'Helvetica', 'Avant Garde', sans-serif; text-anchor: start; fill: #ffffff" x="62.208" y="25.44" transform="rotate(-0 62.208 25.44)">Peak memory of loading and solving, CGMES conformity fixtures</text>
   </g>
  </g>
  <g id="text_14">
   <text style="font-size: 8px; font-family: 'DejaVu Sans', 'Bitstream Vera Sans', 'Computer Modern Sans Serif', 'Lucida Grande', 'Verdana', 'Geneva', 'Lucid', 'Arial', 'Helvetica', 'Avant Garde', sans-serif; fill: #c3c2b7" transform="translate(62.208 361.053813)">Peak RSS of a fresh process loading the case and solving it once, minus the peak after importing the tool.</text>
   <text style="font-size: 8px; font-family: 'DejaVu Sans', 'Bitstream Vera Sans', 'Computer Modern Sans Serif', 'Lucida Grande', 'Verdana', 'Geneva', 'Lucid', 'Arial', 'Helvetica', 'Avant Garde', sans-serif; fill: #c3c2b7" transform="translate(62.208 370.656)">Hollow: loading only (the solve failed). Below 1 MB drawn at 1 MB. Exact values: comparison.md.</text>
  </g>
  <g id="legend_1">
   <g id="line2d_88">
    <path d="M 63.396 319.407188 
L 70.146 319.407188 
L 76.896 319.407188 
" style="fill: none; stroke: #3987e5; stroke-width: 2; stroke-linecap: round"/>
   </g>
   <g id="text_15">
    <text style="font-size: 9px; font-family: 'DejaVu Sans', 'Bitstream Vera Sans', 'Computer Modern Sans Serif', 'Lucida Grande', 'Verdana', 'Geneva', 'Lucid', 'Arial', 'Helvetica', 'Avant Garde', sans-serif; text-anchor: start; fill: #ffffff" x="84.096" y="322.557188" transform="rotate(-0 84.096 322.557188)">pandapower</text>
   </g>
   <g id="line2d_89">
    <path d="M 63.396 332.907891 
L 70.146 332.907891 
L 76.896 332.907891 
" style="fill: none; stroke: #d55181; stroke-width: 2; stroke-linecap: round"/>
   </g>
   <g id="text_16">
    <text style="font-size: 9px; font-family: 'DejaVu Sans', 'Bitstream Vera Sans', 'Computer Modern Sans Serif', 'Lucida Grande', 'Verdana', 'Geneva', 'Lucid', 'Arial', 'Helvetica', 'Avant Garde', sans-serif; text-anchor: start; fill: #ffffff" x="84.096" y="336.057891" transform="rotate(-0 84.096 336.057891)">pypowsybl (OpenLoadFlow)</text>
   </g>
   <g id="line2d_90">
    <path d="M 218.806312 319.407188 
L 225.556312 319.407188 
L 232.306312 319.407188 
" style="fill: none; stroke: #008300; stroke-width: 2; stroke-linecap: round"/>
   </g>
   <g id="text_17">
    <text style="font-size: 9px; font-family: 'DejaVu Sans', 'Bitstream Vera Sans', 'Computer Modern Sans Serif', 'Lucida Grande', 'Verdana', 'Geneva', 'Lucid', 'Arial', 'Helvetica', 'Avant Garde', sans-serif; text-anchor: start; fill: #ffffff" x="239.506312" y="322.557188" transform="rotate(-0 239.506312 322.557188)">VeraGrid</text>
   </g>
   <g id="line2d_91">
    <path d="M 289.404281 319.407188 
L 296.154281 319.407188 
L 302.904281 319.407188 
" style="fill: none; stroke: #9085e9; stroke-width: 2; stroke-linecap: round"/>
   </g>
   <g id="text_18">
    <text style="font-size: 9px; font-family: 'DejaVu Sans', 'Bitstream Vera Sans', 'Computer Modern Sans Serif', 'Lucida Grande', 'Verdana', 'Geneva', 'Lucid', 'Arial', 'Helvetica', 'Avant Garde', sans-serif; text-anchor: start; fill: #ffffff" x="310.104281" y="322.557188" transform="rotate(-0 310.104281 322.557188)">PGM via cgmes2pgm</text>
   </g>
   <g id="line2d_92">
    <path d="M 415.708031 319.407188 
L 422.458031 319.407188 
L 429.208031 319.407188 
" style="fill: none; stroke: #1b9cb6; stroke-width: 2; stroke-linecap: round"/>
   </g>
   <g id="text_19">
    <text style="font-size: 9px; font-family: 'DejaVu Sans', 'Bitstream Vera Sans', 'Computer Modern Sans Serif', 'Lucida Grande', 'Verdana', 'Geneva', 'Lucid', 'Arial', 'Helvetica', 'Avant Garde', sans-serif; text-anchor: start; fill: #ffffff" x="436.408031" y="322.557188" transform="rotate(-0 436.408031 322.557188)">Sparlectra.jl</text>
   </g>
  </g>
 </g>
 <defs>
  <clipPath id="p7c9ccb0020">
   <rect x="62.208" y="37.44" width="463.104" height="235.872"/>
  </clipPath>
 </defs>
</svg>
